<mxfile host="app.diagrams.net" agent="Mozilla/5.0 (Windows NT 10.0; Win64; x64) AppleWebKit/537.36 (KHTML, like Gecko) Chrome/129.0.0.0 Safari/537.36" version="24.7.17" pages="2">
  <diagram name="Sayfa -1" id="PsVq8-ElahzUD-6RaqGa">
    <mxGraphModel dx="1434" dy="772" grid="1" gridSize="10" guides="1" tooltips="1" connect="1" arrows="1" fold="1" page="1" pageScale="1" pageWidth="827" pageHeight="1169" math="0" shadow="0">
      <root>
        <mxCell id="0" />
        <mxCell id="1" parent="0" />
        <mxCell id="7o-heDooIHv9uAz7r70r-1" value="ThanosSystem" style="whiteSpace=wrap;strokeWidth=2;" vertex="1" parent="1">
          <mxGeometry x="20" y="192" width="979" height="198" as="geometry" />
        </mxCell>
        <mxCell id="7o-heDooIHv9uAz7r70r-2" value="Cluster3" style="whiteSpace=wrap;strokeWidth=2;" vertex="1" parent="1">
          <mxGeometry x="199" y="20" width="292" height="99" as="geometry" />
        </mxCell>
        <mxCell id="7o-heDooIHv9uAz7r70r-3" value="Cluster2" style="whiteSpace=wrap;strokeWidth=2;" vertex="1" parent="1">
          <mxGeometry x="511" y="20" width="292" height="99" as="geometry" />
        </mxCell>
        <mxCell id="7o-heDooIHv9uAz7r70r-4" value="Cluster1" style="whiteSpace=wrap;strokeWidth=2;" vertex="1" parent="1">
          <mxGeometry x="823" y="20" width="292" height="99" as="geometry" />
        </mxCell>
        <mxCell id="7o-heDooIHv9uAz7r70r-5" value="Prometheus Instance 1" style="whiteSpace=wrap;strokeWidth=2;" vertex="1" parent="1">
          <mxGeometry x="858" y="45" width="222" height="49" as="geometry" />
        </mxCell>
        <mxCell id="7o-heDooIHv9uAz7r70r-6" value="Prometheus Instance 2" style="whiteSpace=wrap;strokeWidth=2;" vertex="1" parent="1">
          <mxGeometry x="546" y="45" width="222" height="49" as="geometry" />
        </mxCell>
        <mxCell id="7o-heDooIHv9uAz7r70r-7" value="Prometheus Instance 3" style="whiteSpace=wrap;strokeWidth=2;" vertex="1" parent="1">
          <mxGeometry x="234" y="45" width="222" height="49" as="geometry" />
        </mxCell>
        <mxCell id="7o-heDooIHv9uAz7r70r-8" value="Thanos Receiver" style="whiteSpace=wrap;strokeWidth=2;" vertex="1" parent="1">
          <mxGeometry x="568" y="217" width="178" height="49" as="geometry" />
        </mxCell>
        <mxCell id="7o-heDooIHv9uAz7r70r-9" value="Thanos Store" style="whiteSpace=wrap;strokeWidth=2;" vertex="1" parent="1">
          <mxGeometry x="73" y="316" width="154" height="49" as="geometry" />
        </mxCell>
        <mxCell id="7o-heDooIHv9uAz7r70r-10" value="Thanos Compactor" style="whiteSpace=wrap;strokeWidth=2;" vertex="1" parent="1">
          <mxGeometry x="769" y="316" width="195" height="49" as="geometry" />
        </mxCell>
        <mxCell id="7o-heDooIHv9uAz7r70r-11" value="Thanos Querier" style="whiteSpace=wrap;strokeWidth=2;" vertex="1" parent="1">
          <mxGeometry x="55" y="217" width="171" height="49" as="geometry" />
        </mxCell>
        <mxCell id="7o-heDooIHv9uAz7r70r-12" value="User" style="ellipse;aspect=fixed;strokeWidth=2;whiteSpace=wrap;" vertex="1" parent="1">
          <mxGeometry x="117" y="46" width="48" height="48" as="geometry" />
        </mxCell>
        <mxCell id="7o-heDooIHv9uAz7r70r-13" value="Remote Write" style="curved=1;startArrow=none;endArrow=block;exitX=0.5;exitY=1;entryX=1;entryY=0.21;rounded=0;" edge="1" parent="1" source="7o-heDooIHv9uAz7r70r-5" target="7o-heDooIHv9uAz7r70r-8">
          <mxGeometry relative="1" as="geometry">
            <Array as="points">
              <mxPoint x="969" y="192" />
            </Array>
          </mxGeometry>
        </mxCell>
        <mxCell id="7o-heDooIHv9uAz7r70r-14" value="Remote Write" style="curved=1;startArrow=none;endArrow=block;exitX=0.5;exitY=1;entryX=0.5;entryY=0;rounded=0;" edge="1" parent="1" source="7o-heDooIHv9uAz7r70r-6" target="7o-heDooIHv9uAz7r70r-8">
          <mxGeometry relative="1" as="geometry">
            <Array as="points" />
          </mxGeometry>
        </mxCell>
        <mxCell id="7o-heDooIHv9uAz7r70r-15" value="Remote Write" style="curved=1;startArrow=none;endArrow=block;exitX=0.5;exitY=1;entryX=0;entryY=0.21;rounded=0;" edge="1" parent="1" source="7o-heDooIHv9uAz7r70r-7" target="7o-heDooIHv9uAz7r70r-8">
          <mxGeometry relative="1" as="geometry">
            <Array as="points">
              <mxPoint x="345" y="192" />
            </Array>
          </mxGeometry>
        </mxCell>
        <mxCell id="7o-heDooIHv9uAz7r70r-16" value="" style="curved=1;startArrow=none;endArrow=block;exitX=0;exitY=0.73;entryX=0.86;entryY=0;rounded=0;" edge="1" parent="1" source="7o-heDooIHv9uAz7r70r-8" target="7o-heDooIHv9uAz7r70r-9">
          <mxGeometry relative="1" as="geometry">
            <Array as="points">
              <mxPoint x="263" y="291" />
            </Array>
          </mxGeometry>
        </mxCell>
        <mxCell id="7o-heDooIHv9uAz7r70r-17" value="" style="curved=1;startArrow=none;endArrow=block;exitX=1;exitY=0.93;entryX=0.5;entryY=0;rounded=0;" edge="1" parent="1" source="7o-heDooIHv9uAz7r70r-8" target="7o-heDooIHv9uAz7r70r-10">
          <mxGeometry relative="1" as="geometry">
            <Array as="points">
              <mxPoint x="866" y="291" />
            </Array>
          </mxGeometry>
        </mxCell>
        <mxCell id="7o-heDooIHv9uAz7r70r-18" value="" style="curved=1;startArrow=none;endArrow=block;exitX=0.5;exitY=1;entryX=0.47;entryY=0;rounded=0;" edge="1" parent="1" source="7o-heDooIHv9uAz7r70r-11" target="7o-heDooIHv9uAz7r70r-9">
          <mxGeometry relative="1" as="geometry">
            <Array as="points">
              <mxPoint x="140" y="291" />
            </Array>
          </mxGeometry>
        </mxCell>
        <mxCell id="7o-heDooIHv9uAz7r70r-19" value="Query" style="curved=1;startArrow=none;endArrow=block;exitX=0.49;exitY=0.99;entryX=0.5;entryY=0;rounded=0;" edge="1" parent="1" source="7o-heDooIHv9uAz7r70r-12" target="7o-heDooIHv9uAz7r70r-11">
          <mxGeometry relative="1" as="geometry">
            <Array as="points" />
          </mxGeometry>
        </mxCell>
      </root>
    </mxGraphModel>
  </diagram>
  <diagram id="THJ6CmoV2zWCo6P81zo-" name="Sayfa -2">
    <mxGraphModel dx="1050" dy="557" grid="1" gridSize="10" guides="1" tooltips="1" connect="1" arrows="1" fold="1" page="1" pageScale="1" pageWidth="827" pageHeight="1169" math="0" shadow="0">
      <root>
        <mxCell id="0" />
        <mxCell id="1" parent="0" />
      </root>
    </mxGraphModel>
  </diagram>
</mxfile>
